<svg id="visual" viewBox="0 0 960 540" width="960" height="540" xmlns="http://www.w3.org/2000/svg" xmlns:xlink="http://www.w3.org/1999/xlink" version="1.1"><path d="M0 219L8.8 220.3C17.7 221.7 35.3 224.3 53.2 221.2C71 218 89 209 106.8 217.5C124.7 226 142.3 252 160 264.3C177.7 276.7 195.3 275.3 213.2 270.3C231 265.3 249 256.7 266.8 240.3C284.7 224 302.3 200 320 203.3C337.7 206.7 355.3 237.3 373.2 252.5C391 267.7 409 267.3 426.8 254.7C444.7 242 462.3 217 480 219.5C497.7 222 515.3 252 533.2 264C551 276 569 270 586.8 267.8C604.7 265.7 622.3 267.3 640 272C657.7 276.7 675.3 284.3 693.2 285C711 285.7 729 279.3 746.8 276C764.7 272.7 782.3 272.3 800 262.2C817.7 252 835.3 232 853.2 233.2C871 234.3 889 256.7 906.8 254.7C924.7 252.7 942.3 226.3 951.2 213.2L960 200L960 541L951.2 541C942.3 541 924.7 541 906.8 541C889 541 871 541 853.2 541C835.3 541 817.7 541 800 541C782.3 541 764.7 541 746.8 541C729 541 711 541 693.2 541C675.3 541 657.7 541 640 541C622.3 541 604.7 541 586.8 541C569 541 551 541 533.2 541C515.3 541 497.7 541 480 541C462.3 541 444.7 541 426.8 541C409 541 391 541 373.2 541C355.3 541 337.7 541 320 541C302.3 541 284.7 541 266.8 541C249 541 231 541 213.2 541C195.3 541 177.7 541 160 541C142.3 541 124.7 541 106.8 541C89 541 71 541 53.2 541C35.3 541 17.7 541 8.8 541L0 541Z" fill="#282828"></path><path d="M0 300L8.8 301.8C17.7 303.7 35.3 307.3 53.2 311C71 314.7 89 318.3 106.8 310.5C124.7 302.7 142.3 283.3 160 272.8C177.7 262.3 195.3 260.7 213.2 266.8C231 273 249 287 266.8 290.8C284.7 294.7 302.3 288.3 320 277.7C337.7 267 355.3 252 373.2 254.7C391 257.3 409 277.7 426.8 291.7C444.7 305.7 462.3 313.3 480 306.8C497.7 300.3 515.3 279.7 533.2 274.3C551 269 569 279 586.8 289.3C604.7 299.7 622.3 310.3 640 310.3C657.7 310.3 675.3 299.7 693.2 289.2C711 278.7 729 268.3 746.8 270.7C764.7 273 782.3 288 800 294.7C817.7 301.3 835.3 299.7 853.2 296.5C871 293.3 889 288.7 906.8 286.3C924.7 284 942.3 284 951.2 284L960 284L960 541L951.2 541C942.3 541 924.7 541 906.8 541C889 541 871 541 853.2 541C835.3 541 817.7 541 800 541C782.3 541 764.7 541 746.8 541C729 541 711 541 693.2 541C675.3 541 657.7 541 640 541C622.3 541 604.7 541 586.8 541C569 541 551 541 533.2 541C515.3 541 497.7 541 480 541C462.3 541 444.7 541 426.8 541C409 541 391 541 373.2 541C355.3 541 337.7 541 320 541C302.3 541 284.7 541 266.8 541C249 541 231 541 213.2 541C195.3 541 177.7 541 160 541C142.3 541 124.7 541 106.8 541C89 541 71 541 53.2 541C35.3 541 17.7 541 8.8 541L0 541Z" fill="#262626"></path><path d="M0 298L8.8 304C17.7 310 35.3 322 53.2 319.8C71 317.7 89 301.3 106.8 297.7C124.7 294 142.3 303 160 307.7C177.7 312.3 195.3 312.7 213.2 311.3C231 310 249 307 266.8 299C284.7 291 302.3 278 320 284.7C337.7 291.3 355.3 317.7 373.2 330.8C391 344 409 344 426.8 329.7C444.7 315.3 462.3 286.7 480 285.5C497.7 284.3 515.3 310.7 533.2 313C551 315.3 569 293.7 586.8 288.7C604.7 283.7 622.3 295.3 640 309.3C657.7 323.3 675.3 339.7 693.2 344C711 348.3 729 340.7 746.8 338.3C764.7 336 782.3 339 800 329.7C817.7 320.3 835.3 298.7 853.2 296.2C871 293.7 889 310.3 906.8 315.3C924.7 320.3 942.3 313.7 951.2 310.3L960 307L960 541L951.2 541C942.3 541 924.7 541 906.8 541C889 541 871 541 853.2 541C835.3 541 817.7 541 800 541C782.3 541 764.7 541 746.8 541C729 541 711 541 693.2 541C675.3 541 657.7 541 640 541C622.3 541 604.7 541 586.8 541C569 541 551 541 533.2 541C515.3 541 497.7 541 480 541C462.3 541 444.7 541 426.8 541C409 541 391 541 373.2 541C355.3 541 337.7 541 320 541C302.3 541 284.7 541 266.8 541C249 541 231 541 213.2 541C195.3 541 177.7 541 160 541C142.3 541 124.7 541 106.8 541C89 541 71 541 53.2 541C35.3 541 17.7 541 8.8 541L0 541Z" fill="#242424"></path><path d="M0 368L8.8 364.2C17.7 360.3 35.3 352.7 53.2 348.2C71 343.7 89 342.3 106.8 342C124.7 341.7 142.3 342.3 160 344.8C177.7 347.3 195.3 351.7 213.2 354.7C231 357.7 249 359.3 266.8 365.3C284.7 371.3 302.3 381.7 320 384.2C337.7 386.7 355.3 381.3 373.2 369.8C391 358.3 409 340.7 426.8 328.3C444.7 316 462.3 309 480 316.8C497.7 324.7 515.3 347.3 533.2 358.5C551 369.7 569 369.3 586.8 371.8C604.7 374.3 622.3 379.7 640 372C657.7 364.3 675.3 343.7 693.2 341C711 338.3 729 353.7 746.8 361.5C764.7 369.3 782.3 369.7 800 368.7C817.7 367.7 835.3 365.3 853.2 361.7C871 358 889 353 906.8 347.2C924.7 341.3 942.3 334.7 951.2 331.3L960 328L960 541L951.2 541C942.3 541 924.7 541 906.8 541C889 541 871 541 853.2 541C835.3 541 817.7 541 800 541C782.3 541 764.7 541 746.8 541C729 541 711 541 693.2 541C675.3 541 657.7 541 640 541C622.3 541 604.7 541 586.8 541C569 541 551 541 533.2 541C515.3 541 497.7 541 480 541C462.3 541 444.7 541 426.8 541C409 541 391 541 373.2 541C355.3 541 337.7 541 320 541C302.3 541 284.7 541 266.8 541C249 541 231 541 213.2 541C195.3 541 177.7 541 160 541C142.3 541 124.7 541 106.8 541C89 541 71 541 53.2 541C35.3 541 17.7 541 8.8 541L0 541Z" fill="#222222"></path><path d="M0 354L8.8 365.3C17.7 376.7 35.3 399.3 53.2 406.2C71 413 89 404 106.8 397.7C124.7 391.3 142.3 387.7 160 383.7C177.7 379.7 195.3 375.3 213.2 378.3C231 381.3 249 391.7 266.8 392.5C284.7 393.3 302.3 384.7 320 377C337.7 369.3 355.3 362.7 373.2 365.2C391 367.7 409 379.3 426.8 379.3C444.7 379.3 462.3 367.7 480 364.3C497.7 361 515.3 366 533.2 369.7C551 373.3 569 375.7 586.8 375.7C604.7 375.7 622.3 373.3 640 374.3C657.7 375.3 675.3 379.7 693.2 382.7C711 385.7 729 387.3 746.8 384.2C764.7 381 782.3 373 800 370.7C817.7 368.3 835.3 371.7 853.2 370C871 368.3 889 361.7 906.8 369.2C924.7 376.7 942.3 398.3 951.2 409.2L960 420L960 541L951.2 541C942.3 541 924.7 541 906.8 541C889 541 871 541 853.2 541C835.3 541 817.7 541 800 541C782.3 541 764.7 541 746.8 541C729 541 711 541 693.2 541C675.3 541 657.7 541 640 541C622.3 541 604.7 541 586.8 541C569 541 551 541 533.2 541C515.3 541 497.7 541 480 541C462.3 541 444.7 541 426.8 541C409 541 391 541 373.2 541C355.3 541 337.7 541 320 541C302.3 541 284.7 541 266.8 541C249 541 231 541 213.2 541C195.3 541 177.7 541 160 541C142.3 541 124.7 541 106.8 541C89 541 71 541 53.2 541C35.3 541 17.7 541 8.8 541L0 541Z" fill="#202020"></path><path d="M0 400L8.8 408.3C17.7 416.7 35.3 433.3 53.2 440C71 446.7 89 443.3 106.8 439.2C124.7 435 142.3 430 160 430.3C177.7 430.7 195.3 436.3 213.2 435C231 433.7 249 425.3 266.8 426.7C284.7 428 302.3 439 320 434C337.7 429 355.3 408 373.2 403C391 398 409 409 426.8 419.7C444.7 430.3 462.3 440.7 480 435.2C497.7 429.7 515.3 408.3 533.2 403.2C551 398 569 409 586.8 414.3C604.7 419.7 622.3 419.3 640 423.3C657.7 427.3 675.3 435.7 693.2 434.3C711 433 729 422 746.8 419.2C764.7 416.3 782.3 421.7 800 421C817.7 420.3 835.3 413.7 853.2 406.5C871 399.3 889 391.7 906.8 393.5C924.7 395.3 942.3 406.7 951.2 412.3L960 418L960 541L951.2 541C942.3 541 924.7 541 906.8 541C889 541 871 541 853.2 541C835.3 541 817.7 541 800 541C782.3 541 764.7 541 746.8 541C729 541 711 541 693.2 541C675.3 541 657.7 541 640 541C622.3 541 604.7 541 586.8 541C569 541 551 541 533.2 541C515.3 541 497.7 541 480 541C462.3 541 444.7 541 426.8 541C409 541 391 541 373.2 541C355.3 541 337.7 541 320 541C302.3 541 284.7 541 266.8 541C249 541 231 541 213.2 541C195.3 541 177.7 541 160 541C142.3 541 124.7 541 106.8 541C89 541 71 541 53.2 541C35.3 541 17.7 541 8.8 541L0 541Z" fill="#1e1e1e"></path><path d="M0 463L8.8 459.8C17.7 456.7 35.3 450.3 53.2 448C71 445.7 89 447.3 106.8 444.2C124.7 441 142.3 433 160 438.5C177.7 444 195.3 463 213.2 466.5C231 470 249 458 266.8 451.3C284.7 444.7 302.3 443.3 320 447.7C337.7 452 355.3 462 373.2 468C391 474 409 476 426.8 472.2C444.7 468.3 462.3 458.7 480 457.3C497.7 456 515.3 463 533.2 460.8C551 458.7 569 447.3 586.8 442.2C604.7 437 622.3 438 640 445C657.7 452 675.3 465 693.2 471.8C711 478.7 729 479.3 746.8 477C764.7 474.7 782.3 469.3 800 467C817.7 464.7 835.3 465.3 853.2 461.7C871 458 889 450 906.8 451.3C924.7 452.7 942.3 463.3 951.2 468.7L960 474L960 541L951.2 541C942.3 541 924.7 541 906.8 541C889 541 871 541 853.2 541C835.3 541 817.7 541 800 541C782.3 541 764.7 541 746.8 541C729 541 711 541 693.2 541C675.3 541 657.7 541 640 541C622.3 541 604.7 541 586.8 541C569 541 551 541 533.2 541C515.3 541 497.7 541 480 541C462.3 541 444.7 541 426.8 541C409 541 391 541 373.2 541C355.3 541 337.7 541 320 541C302.3 541 284.7 541 266.8 541C249 541 231 541 213.2 541C195.3 541 177.7 541 160 541C142.3 541 124.7 541 106.8 541C89 541 71 541 53.2 541C35.3 541 17.7 541 8.8 541L0 541Z" fill="#1c1c1c"></path><path d="M0 469L8.8 476.3C17.7 483.7 35.3 498.3 53.2 498.8C71 499.3 89 485.7 106.8 483C124.7 480.3 142.3 488.7 160 494.7C177.7 500.7 195.3 504.3 213.2 504.7C231 505 249 502 266.8 502.3C284.7 502.7 302.3 506.3 320 504.3C337.7 502.3 355.3 494.7 373.2 491C391 487.3 409 487.7 426.8 485C444.7 482.3 462.3 476.7 480 477.8C497.7 479 515.3 487 533.2 493.7C551 500.3 569 505.7 586.8 502.5C604.7 499.3 622.3 487.7 640 480.8C657.7 474 675.3 472 693.2 478.3C711 484.7 729 499.3 746.8 503.7C764.7 508 782.3 502 800 501.5C817.7 501 835.3 506 853.2 501.2C871 496.3 889 481.7 906.8 481.7C924.7 481.7 942.3 496.3 951.2 503.7L960 511L960 541L951.2 541C942.3 541 924.7 541 906.8 541C889 541 871 541 853.2 541C835.3 541 817.7 541 800 541C782.3 541 764.7 541 746.8 541C729 541 711 541 693.2 541C675.3 541 657.7 541 640 541C622.3 541 604.7 541 586.8 541C569 541 551 541 533.2 541C515.3 541 497.7 541 480 541C462.3 541 444.7 541 426.8 541C409 541 391 541 373.2 541C355.3 541 337.7 541 320 541C302.3 541 284.7 541 266.8 541C249 541 231 541 213.2 541C195.3 541 177.7 541 160 541C142.3 541 124.7 541 106.8 541C89 541 71 541 53.2 541C35.3 541 17.7 541 8.8 541L0 541Z" fill="#1a1a1a"></path></svg>